Coordinates
version=1
nRows=4
nColumns=63
inDegrees=yes

Units are S.I. units (second, meters, Newtons, ...)
If the header above contains a line with 'inDegrees', this indicates whether rotational values are in degrees (yes) or radians (no).

endheader
time	pelvis_tilt	pelvis_list	pelvis_rotation	pelvis_tx	pelvis_ty	pelvis_tz	hip_flexion_r	hip_adduction_r	hip_rotation_r	knee_angle_r	knee_angle_r_beta	ankle_angle_r	subtalar_angle_r	mtp_angle_r	hip_flexion_l	hip_adduction_l	hip_rotation_l	knee_angle_l	knee_angle_l_beta	ankle_angle_l	subtalar_angle_l	mtp_angle_l	L5_S1_Flex_Ext	L5_S1_Lat_Bending	L5_S1_axial_rotation	L4_L5_Flex_Ext	L4_L5_Lat_Bending	L4_L5_axial_rotation	L3_L4_Flex_Ext	L3_L4_Lat_Bending	L3_L4_axial_rotation	L2_L3_Flex_Ext	L2_L3_Lat_Bending	L2_L3_axial_rotation	L1_L2_Flex_Ext	L1_L2_Lat_Bending	L1_L2_axial_rotation	L1_T12_Flex_Ext	L1_T12_Lat_Bending	L1_T12_axial_rotation	Abs_r3	Abs_r2	Abs_r1	Abs_t1	Abs_t2	neck_flexion	neck_bending	neck_rotation	arm_flex_r	arm_add_r	arm_rot_r	elbow_flex_r	pro_sup_r	wrist_flex_r	wrist_dev_r	arm_flex_l	arm_add_l	arm_rot_l	elbow_flex_l	pro_sup_l	wrist_flex_l	wrist_dev_l
      3.88300000	    -53.30411609	      0.07573390	      5.36465930	     -0.25322231	      1.00850068	      0.01065962	     87.26565149	     -8.78457276	     -3.10672150	     46.00998383	      0.80302571	      0.07648252	     -4.18741200	      0.00000000	    126.88881592	      0.30969609	      5.02509598	    119.68088984	      2.08882558	      5.15155546	      1.35928713	      0.00000000	     -0.08211375	     -0.29433587	     -1.11598703	     -0.15249344	     -0.39146671	     -1.18573622	     -0.13490468	     -0.71564824	     -1.18573622	     -0.09384780	     -0.71564824	     -0.97648865	     -0.07625083	     -0.60020971	     -0.90673946	     -0.04691980	     -0.45592626	     -0.83699027	     -0.58653029	     -3.32958623	     -6.20678506	      0.00000000	      0.00000000	     -0.00000000	      0.00000000	      0.00000000	     67.91778723	    -10.87656084	      7.77547587	     36.70328172	     53.46817796	      0.00000000	      4.99999886	     68.50487555	    -16.88878311	     19.88722410	     44.76572077	     55.53579067	      0.00000000	      4.99999886
      3.89200000	    -53.34485141	      0.21885187	      5.34303872	     -0.25314233	      1.00901224	      0.01075820	     86.37268377	     -8.76779276	     -3.09780499	     46.16837862	      0.80579022	     -0.03033991	     -4.19264205	      0.00000000	    128.05751887	      0.51495699	      4.94542395	    119.50372795	      2.08573352	      5.40294742	      1.36220514	      0.00000000	     -0.08391926	     -0.31867871	     -1.10040782	     -0.15584646	     -0.42384268	     -1.16918331	     -0.13787095	     -0.77483541	     -1.16918331	     -0.09591132	     -0.77483541	     -0.96285684	     -0.07792743	     -0.64984962	     -0.89408135	     -0.04795147	     -0.49363332	     -0.82530587	     -0.59942688	     -3.60495727	     -6.12013817	      0.00000000	      0.00000000	     -0.00000000	      0.00000000	      0.00000000	     67.92584998	    -10.93318564	      7.76206230	     36.66048618	     53.46783817	      0.00000000	      4.99999886	     68.59423146	    -16.88976385	     19.86990220	     44.80616073	     55.53550965	      0.00000000	      4.99999886
      3.90000000	    -53.35088722	     -0.01846389	      5.00747301	     -0.25302556	      1.00927715	      0.01101985	     85.67028745	     -8.34292001	     -3.28000825	     46.87873348	      0.81818825	      0.05468998	     -4.68472270	      0.00000000	    129.02595156	      0.75219089	      5.54808533	    119.09753306	      2.07864408	      6.49661942	      1.79173373	      0.00000000	     -0.08025955	     -0.29356347	     -0.99500521	     -0.14905001	     -0.39043941	     -1.05719303	     -0.13185842	     -0.71377021	     -1.05719303	     -0.09172864	     -0.71377021	     -0.87062955	     -0.07452902	     -0.59863462	     -0.80844173	     -0.04586031	     -0.45472981	     -0.74625390	     -0.57328595	     -3.32084864	     -5.53392045	      0.00000000	      0.00000000	     -0.00000000	      0.00000000	      0.00000000	     67.95408680	    -11.27683578	      7.82065228	     36.56257452	     53.49093133	      0.00000000	      4.99999889	     68.66142377	    -16.53966799	     19.93192808	     44.54556942	     55.55743364	      0.00000000	      4.99999889
      3.90800000	    -53.39594234	     -0.21004916	      4.80262688	     -0.25317000	      1.00991521	      0.01116885	     85.22853411	     -8.09419934	     -3.56613905	     47.85561239	      0.83523800	     -0.57574221	     -5.80459173	      0.00000000	    129.73655585	      1.04109427	      6.11049095	    118.18348324	      2.06269090	      7.53928216	      2.85380768	      0.00000000	     -0.08151368	     -0.27358296	     -0.92156249	     -0.15137906	     -0.36386534	     -0.97916015	     -0.13391883	     -0.66518961	     -0.97916015	     -0.09316198	     -0.66518961	     -0.80636718	     -0.07569360	     -0.55789038	     -0.74876953	     -0.04657692	     -0.42378001	     -0.69117187	     -0.58224407	     -3.09482518	     -5.12545411	      0.00000000	      0.00000000	     -0.00000000	      0.00000000	      0.00000000	     68.05748053	    -11.66307901	      8.30867052	     36.48116546	     53.38694272	      0.00000000	      4.99999901	     68.70674936	    -16.22726119	     19.76432302	     44.43194962	     55.30918924	      0.00000000	      4.99999901
